# xmcd
#
# Track frame offsets:
#	150
#	17625
#	32700
#	51450
#	71400
#	86700
#	102975
#	132675
#	151650
#	172280
#	185780
#	202204
#
# Disc length: 2830 seconds
#
# Revision: 1
# Processed by: cddbd v1.5.2PL0 Copyright (c) Steve Scherf et al.
# Submitted via: EasyCDDAExtractor 5.0.7
#
DISCID=b40b0c0c
DTITLE=Amarillo - Sky
DYEAR=1900
DGENRE=Country
TTITLE0=Brokenheartsville
TTITLE1=Amarillo Sky
TTITLE2=Just Don't Happen Twice
TTITLE3=Fast As You
TTITLE4=If Tomorrow Newver Comes
TTITLE5=Nothing On But The Radio
TTITLE6=Past The Point Of Rescue
TTITLE7=Texas Tornado
TTITLE8=When Cowboys Didn't Dance
TTITLE9=Time Marches On
TTITLE10=I Love This Bar
TTITLE11=I Love This Bar - Amarillo Extension
EXTD=
EXTT0=
EXTT1=
EXTT2=
EXTT3=
EXTT4=
EXTT5=
EXTT6=
EXTT7=
EXTT8=
EXTT9=
EXTT10=
EXTT11=
PLAYORDER=
